<svg width="340" height="80" viewBox="0 0 340 80" fill="none" xmlns="http://www.w3.org/2000/svg">
<line x1="26" x2="26" y2="80" stroke="black" stroke-width="4"/>
<line x1="31" x2="31" y2="80" stroke="black" stroke-width="2"/>
<line x1="87" x2="87" y2="80" stroke="black" stroke-width="2"/>
<line x1="191" x2="191" y2="80" stroke="black" stroke-width="2"/>
<line x1="35.5" x2="35.5" y2="80" stroke="black" stroke-width="3"/>
<line x1="91.5" x2="91.5" y2="80" stroke="black" stroke-width="3"/>
<line x1="195.5" x2="195.5" y2="80" stroke="black" stroke-width="3"/>
<line x1="131.5" x2="131.5" y2="80" stroke="black" stroke-width="3"/>
<line x1="226.5" x2="226.5" y2="80" stroke="black" stroke-width="3"/>
<line x1="258.5" x2="258.5" y2="80" stroke="black" stroke-width="3"/>
<line x1="308.5" x2="308.5" y2="80" stroke="black" stroke-width="3"/>
<line x1="38.5" x2="38.5" y2="80" stroke="black"/>
<line x1="94.5" x2="94.5" y2="80" stroke="black"/>
<line x1="198.5" x2="198.5" y2="80" stroke="black"/>
<line x1="121.5" x2="121.5" y2="80" stroke="black"/>
<line x1="134.5" x2="134.5" y2="80" stroke="black"/>
<line x1="229.5" x2="229.5" y2="80" stroke="black"/>
<line x1="167.5" x2="167.5" y2="80" stroke="black"/>
<line x1="261.5" x2="261.5" y2="80" stroke="black"/>
<line x1="311.5" x2="311.5" y2="80" stroke="black"/>
<line x1="292.5" x2="292.5" y2="80" stroke="black"/>
<line x1="45" x2="45" y2="80" stroke="black" stroke-width="2"/>
<line x1="101" x2="101" y2="80" stroke="black" stroke-width="2"/>
<line x1="205" x2="205" y2="80" stroke="black" stroke-width="2"/>
<line x1="50" x2="50" y2="80" stroke="black" stroke-width="4"/>
<line x1="67" x2="67" y2="80" stroke="black" stroke-width="4"/>
<line x1="77" x2="77" y2="80" stroke="black" stroke-width="4"/>
<line x1="112" x2="112" y2="80" stroke="black" stroke-width="4"/>
<line x1="200" x2="200" y2="80" stroke="black" stroke-width="4"/>
<line x1="147" x2="147" y2="80" stroke="black" stroke-width="4"/>
<line x1="242" x2="242" y2="80" stroke="black" stroke-width="4"/>
<line x1="274" x2="274" y2="80" stroke="black" stroke-width="4"/>
<line x1="154" x2="154" y2="80" stroke="black" stroke-width="2"/>
<line x1="139" x2="139" y2="80" stroke="black" stroke-width="2"/>
<line x1="234" x2="234" y2="80" stroke="black" stroke-width="2"/>
<line x1="172" x2="172" y2="80" stroke="black" stroke-width="2"/>
<line x1="266" x2="266" y2="80" stroke="black" stroke-width="2"/>
<line x1="297" x2="297" y2="80" stroke="black" stroke-width="2"/>
<line x1="162.5" x2="162.5" y2="80" stroke="black" stroke-width="5"/>
<line x1="182" x2="182" y2="80" stroke="black" stroke-width="4"/>
<line x1="217" x2="217" y2="80" stroke="black" stroke-width="4"/>
<line x1="252" x2="252" y2="80" stroke="black" stroke-width="4"/>
<line x1="302" x2="302" y2="80" stroke="black" stroke-width="4"/>
<line x1="287" x2="287" y2="80" stroke="black" stroke-width="4"/>
<line x1="322" x2="322" y2="80" stroke="black" stroke-width="4"/>
</svg>
