<svg width="14" height="14" viewBox="0 0 14 14" fill="none" xmlns="http://www.w3.org/2000/svg">
<path fill-rule="evenodd" clip-rule="evenodd" d="M2.91667 5.0835C2.91667 4.53121 2.46895 4.0835 1.91667 4.0835H1C0.447715 4.0835 0 4.53121 0 5.08349V12.4168C0 12.9691 0.447716 13.4168 1 13.4168H13C13.5523 13.4168 14 12.9691 14 12.4168V5.0835C14 4.53121 13.5523 4.0835 13 4.0835H12.0833C11.531 4.0835 11.0833 4.53121 11.0833 5.0835V10.0835C11.0833 10.6358 10.6356 11.0835 10.0833 11.0835H3.91667C3.36438 11.0835 2.91667 10.6358 2.91667 10.0835V5.0835Z" fill="#F7A911"/>
<rect x="3.5" y="0.583496" width="7" height="9.91667" rx="1" fill="#F7A911"/>
</svg>
